<svg width="210" height="24" viewBox="0 0 210 24" fill="none" xmlns="http://www.w3.org/2000/svg">
<path d="M26.5312 0V8H13.6562V8.64062H24.2656V15.3594H13.6562V24H0.3125L0.375 0H26.5312ZM32.5312 0H49.1094C50.5312 0 51.8906 0.5625 52.8906 1.5625C53.8906 2.5625 54.4531 3.92188 54.4531 5.32812V18.6719C54.4531 20.0781 53.8906 21.4375 52.8906 22.4375C51.8906 23.4375 50.5312 24 49.1094 24H32.4844C31.0781 24 29.7188 23.4375 28.7188 22.4375C27.7188 21.4219 27.1562 20.0625 27.1562 18.6562C27.1719 14.6875 27.1875 9.28125 27.1875 5.3125C27.2031 2.375 29.5781 0 32.5312 0ZM40.4688 8V16H41.1406L41.1562 8H40.4688ZM68.4219 16H69.0781L69.125 0H82.3906V18.6719C82.3906 20.0781 81.8281 21.4375 80.8281 22.4375C79.8281 23.4375 78.4688 24 77.0625 24H60.4375C59.0156 24 57.6562 23.4375 56.6562 22.4375C55.6562 21.4219 55.0938 20.0625 55.0938 18.6562C55.125 11.5781 55.1406 0 55.1406 0H68.4219V16ZM96.3594 0L99.125 7.79688V0H110.859L112.453 16.6719V24H99.125L96.3594 16.0469V24H83.0312V16.6719L84.625 0H96.3594ZM113.156 0H135.078C136.484 0 137.844 0.5625 138.844 1.5625C139.844 2.5625 140.406 3.92188 140.406 5.32812V18.6719C140.406 20.0781 139.844 21.4375 138.844 22.4375C137.844 23.4375 136.484 24 135.078 24H113.094L113.156 0ZM127.109 8H126.438V16H127.094L127.109 8ZM154.375 0V24H141.031L141.094 0H154.375ZM181.219 0V8H168.344V8.64062H178.953V15.3594H168.344V24H155L155.062 0H181.219ZM195.172 9.3125H195.875V0H209.203V7.32812L202.531 15.2969V24H189.203L189.234 15.2656L189.203 15.2969L181.844 7.32812V0H195.172V9.3125Z" fill="black"/>
</svg>
