<svg width="277" height="83" viewBox="0 0 277 83" fill="none" xmlns="http://www.w3.org/2000/svg">
<path d="M60.6476 20.032V19.264H74.0876V20.656C74.0876 21.664 73.8956 22.672 73.5116 23.728C73.1756 24.832 72.4556 25.984 71.3516 27.28C70.2476 28.528 68.8076 29.68 67.1276 30.64C65.3996 31.6 63.0476 32.416 60.0236 33.04C57.0956 33.712 53.6396 34.048 49.7996 34.048H47.9276C45.0956 34.048 42.4556 33.808 40.1516 33.424C37.7516 33.04 35.7356 32.512 34.1516 31.888C32.4716 31.216 31.0316 30.448 29.7356 29.488C28.4396 28.528 27.4316 27.568 26.7116 26.608C25.9436 25.648 25.3676 24.592 24.8876 23.488C24.4076 22.384 24.0716 21.328 23.9276 20.416C23.7836 19.504 23.7356 18.592 23.7356 17.728V16.528C23.7356 15.136 23.8796 13.792 24.1676 12.592C24.4556 11.296 25.1276 9.856 26.1836 8.32C27.2396 6.736 28.5836 5.392 30.3116 4.288C31.9436 3.184 34.3436 2.272 37.3676 1.504C40.3916 0.783998 43.9436 0.399998 47.9276 0.399998H49.8476C53.6876 0.399998 57.1916 0.735999 60.1676 1.36C63.1436 2.032 65.5436 2.8 67.2236 3.76C68.9036 4.672 70.2956 5.776 71.3996 7.024C72.5036 8.32 73.1756 9.424 73.5116 10.48C73.8476 11.488 74.0396 12.496 74.0396 13.408V14.8H60.7916L60.5996 14.128C60.5516 13.84 60.4556 13.6 60.3596 13.408C60.3116 13.36 60.1676 13.072 59.4476 12.352C58.9196 11.872 58.2956 11.44 57.6236 11.104C56.8556 10.768 55.7036 10.432 54.1676 10.144C52.6316 9.808 50.8556 9.664 48.8396 9.664C46.4396 9.664 44.3756 9.904 42.6956 10.336C41.1116 10.72 39.9116 11.296 39.1436 11.968C38.3756 12.688 37.7996 13.408 37.4636 14.176C37.1756 14.944 36.9836 15.808 36.9836 16.72V17.2C36.9836 18.064 37.1756 18.928 37.5596 19.744C37.8956 20.56 38.5196 21.328 39.3356 22.144C40.1036 22.864 41.3516 23.488 42.9356 23.968C44.6156 24.496 46.6316 24.736 48.9356 24.736C55.5596 24.736 59.4956 23.152 60.6476 20.032ZM98.472 6.304C101.64 6.304 103.896 6.736 105.72 7.216V16.288C103.176 15.664 101.112 15.376 99.096 15.376C95.256 15.376 91.032 15.856 87.912 19.312V34H77.016V6.352H87.912V11.296C90.312 7.696 94.008 6.304 98.472 6.304ZM144.138 18.256C144.186 19.072 144.186 19.84 144.138 20.512H117.066C117.354 24.16 120.762 26.464 125.418 26.464C129.402 26.464 132.474 24.784 133.482 22H144.138C143.226 30.592 136.458 34 125.706 34C114.09 34 107.178 30.016 107.178 19.936C107.178 9.856 114.09 5.872 125.706 5.872C135.594 5.872 142.026 8.8 143.754 15.952H143.802C143.898 16.288 143.946 16.768 143.994 17.2C144.042 17.44 144.09 17.632 144.138 17.872H144.09C144.09 18.016 144.138 18.112 144.138 18.256ZM118.554 15.952H132.234C130.746 14.368 128.346 13.456 125.418 13.456C122.49 13.456 120.042 14.368 118.554 15.952ZM174.741 5.92H185.637V33.568H174.741V30.208C171.669 32.56 167.541 34.048 162.981 34.048C153.525 34.048 145.845 27.712 145.845 19.936C145.845 12.16 153.525 5.872 162.981 5.872C167.541 5.872 171.669 7.36 174.741 9.712V5.92ZM165.861 26.128C174.645 25.792 174.261 19.6 174.261 19.6C173.781 12.688 165.861 13.072 165.861 13.072C165.861 13.072 157.461 12.976 157.413 19.6C157.365 26.224 165.861 26.128 165.861 26.128ZM204.44 21.04C204.44 23.632 205.448 24.928 208.616 24.928C211.064 24.928 212.456 24.928 215.576 24.496V33.376C212.984 33.808 209.768 34.048 206.168 34.048C197.72 34.048 193.544 31.456 193.544 25.552L193.592 15.136L188.072 15.184V5.92L193.544 5.968V3.04L204.44 0.0639992V5.92H215.576V15.136H204.44V21.04ZM254.997 18.256C255.045 19.072 255.045 19.84 254.997 20.512H227.925C228.213 24.16 231.621 26.464 236.277 26.464C240.261 26.464 243.333 24.784 244.341 22H254.997C254.085 30.592 247.317 34 236.565 34C224.949 34 218.037 30.016 218.037 19.936C218.037 9.856 224.949 5.872 236.565 5.872C246.453 5.872 252.885 8.8 254.613 15.952H254.661C254.757 16.288 254.805 16.768 254.853 17.2C254.901 17.44 254.949 17.632 254.997 17.872H254.949C254.949 18.016 254.997 18.112 254.997 18.256ZM229.413 15.952H243.093C241.605 14.368 239.205 13.456 236.277 13.456C233.349 13.456 230.901 14.368 229.413 15.952ZM18.0591 48.4H35.2911L53.1951 82H40.3791L37.4031 76.24H15.8991L12.9231 82H0.155062L18.0591 48.4ZM20.5551 67.168H32.7951L27.8031 57.424H25.5471L20.5551 67.168ZM70.0817 74.464C74.0657 74.464 77.1377 72.784 78.1457 70H88.8017C87.8897 78.592 81.1217 82.048 70.3697 82.048C58.7537 82.048 51.8417 78.064 51.8417 67.936C51.8417 57.856 58.7537 53.872 70.3697 53.872C81.1217 53.872 87.8897 57.328 88.8017 65.92H78.1457C77.1377 63.136 74.0657 61.456 70.0817 61.456C65.1857 61.456 61.6817 63.952 61.6817 67.936C61.6817 71.968 65.1857 74.464 70.0817 74.464ZM108.847 74.464C112.831 74.464 115.903 72.784 116.911 70H127.567C126.655 78.592 119.887 82.048 109.135 82.048C97.5193 82.048 90.6073 78.064 90.6073 67.936C90.6073 57.856 97.5193 53.872 109.135 53.872C119.887 53.872 126.655 57.328 127.567 65.92H116.911C115.903 63.136 112.831 61.456 108.847 61.456C103.951 61.456 100.447 63.952 100.447 67.936C100.447 71.968 103.951 74.464 108.847 74.464ZM147.901 53.872C159.469 53.872 166.429 57.856 166.429 67.936C166.429 78.016 159.469 82.048 147.901 82.048C136.285 82.048 129.373 78.064 129.373 67.936C129.373 57.856 136.285 53.872 147.901 53.872ZM148.093 74.464C156.925 74.176 156.541 67.936 156.541 67.936C156.061 61.024 148.093 61.456 148.093 61.456C148.093 61.456 139.741 61.312 139.693 67.936C139.645 74.56 148.093 74.464 148.093 74.464ZM206.151 81.568H195.255V77.92C191.943 80.224 187.767 82.048 182.055 82.048C175.911 82.048 168.999 80.128 168.999 70.288V53.92H179.895V65.824C179.895 70.48 181.575 72.496 186.471 72.496C189.687 72.496 193.095 71.104 195.255 69.04L195.207 53.92H206.151V81.568ZM234.259 54.304C240.403 54.304 247.363 56.224 247.363 66.064V82H236.467V70.528C236.467 65.824 234.787 63.856 229.843 63.856C226.627 63.856 223.219 65.248 221.107 67.312V82H210.211V54.352H221.059L221.107 58.384C224.371 56.128 228.547 54.304 234.259 54.304ZM265.775 69.04C265.775 71.632 266.783 72.928 269.951 72.928C272.399 72.928 273.791 72.928 276.911 72.496V81.376C274.319 81.808 271.103 82.048 267.503 82.048C259.055 82.048 254.879 79.456 254.879 73.552L254.927 63.136L249.407 63.184V53.92L254.879 53.968V51.04L265.775 48.064V53.92H276.911V63.136H265.775V69.04Z" fill="black"/>
</svg>
