<svg width="467" height="80" viewBox="0 0 467 80" fill="none" xmlns="http://www.w3.org/2000/svg">
<g filter="url(#filter0_dd_2706_57)">
<path d="M18.8281 1.14062H69.0312L67.2031 9.57812H26.0938L21.6875 30.4844H59.7031L58.0156 38.4531H20L15.0312 61.7969H56.8438L55.1094 70H4.20312L18.8281 1.14062ZM87.125 64.4219C91.0312 64.4219 94.5938 62.75 97.8125 59.4062C101.031 56.0312 103.312 51.2031 104.656 44.9219C106 38.5781 105.703 33.8906 103.766 30.8594C101.828 27.7969 98.9531 26.2656 95.1406 26.2656C90.8906 26.2656 87.0938 27.8906 83.75 31.1406C80.4375 34.3906 78.1094 39.1719 76.7656 45.4844C75.6094 50.8594 75.7812 55.3594 77.2812 58.9844C78.8125 62.6094 82.0938 64.4219 87.125 64.4219ZM104.234 21.3438C105.547 22.2812 106.906 23.9219 108.312 26.2656L113.703 0.90625H121.812L107.141 70H99.5469L101 63.0156C98.375 66.1094 95.5625 68.3438 92.5625 69.7188C89.5938 71.0938 86.375 71.7812 82.9062 71.7812C77.3125 71.7812 72.9688 69.4375 69.875 64.75C66.7812 60.0312 66.0781 53.7656 67.7656 45.9531C69.2969 38.6406 72.5 32.3125 77.375 26.9688C82.25 21.5938 88.1562 18.9062 95.0938 18.9062C98.9375 18.9062 101.984 19.7188 104.234 21.3438ZM130.25 20.0312H138.828L128.234 70H119.656L130.25 20.0312ZM134.281 1.14062H142.859L140.797 10.7031H132.219L134.281 1.14062ZM156.359 5.78125H164.891L161.891 19.7969H169.906L168.453 26.6875H160.438L153.453 59.4531C153.078 61.2031 153.422 62.375 154.484 62.9688C155.078 63.3125 156.141 63.4844 157.672 63.4844C158.078 63.4844 158.516 63.4844 158.984 63.4844C159.453 63.4531 160.016 63.4062 160.672 63.3438L159.266 70C158.234 70.2812 157.172 70.4844 156.078 70.6094C155.016 70.7344 153.875 70.7969 152.656 70.7969C148.719 70.7969 146.25 69.7969 145.25 67.7969C144.281 65.7656 144.141 63.1406 144.828 59.9219L151.906 26.6875H145.109L146.562 19.7969H153.359L156.359 5.78125ZM211.109 1.14062H242.094C248.219 1.14062 252.781 2.875 255.781 6.34375C258.812 9.78125 259.656 14.625 258.312 20.875C257.188 26.25 254.516 30.9375 250.297 34.9375C246.109 38.9062 240.547 40.8906 233.609 40.8906H211.953L205.812 70H196.484L211.109 1.14062ZM245.469 10.6094C243.594 9.64062 240.859 9.15625 237.266 9.15625H218.703L213.641 33.0156H232.203C236.391 33.0156 239.969 32.125 242.938 30.3438C245.938 28.5625 247.922 25.4219 248.891 20.9219C249.953 15.8594 248.812 12.4219 245.469 10.6094ZM269.375 19.7969H277.391L275.562 28.4688C276.562 26.7812 278.594 24.7344 281.656 22.3281C284.75 19.8906 287.969 18.6719 291.312 18.6719C291.469 18.6719 291.734 18.6875 292.109 18.7188C292.484 18.75 293.109 18.8125 293.984 18.9062L292.109 27.8125C291.609 27.7188 291.156 27.6562 290.75 27.625C290.344 27.5938 289.891 27.5781 289.391 27.5781C285.141 27.5781 281.578 28.9531 278.703 31.7031C275.859 34.4219 274.047 37.5625 273.266 41.125L267.172 70H258.734L269.375 19.7969ZM330.5 44.0781C331.5 39.3906 331.562 35.5781 330.688 32.6406C329.281 28.0156 325.672 25.7031 319.859 25.7031C314.703 25.7031 310.531 27.6719 307.344 31.6094C304.188 35.5469 302.016 40.2969 300.828 45.8594C299.703 51.2031 299.922 55.6562 301.484 59.2188C303.078 62.7812 306.422 64.5625 311.516 64.5625C317.109 64.5625 321.391 62.4531 324.359 58.2344C327.359 53.9844 329.406 49.2656 330.5 44.0781ZM339.359 43.8438C337.641 51.9375 334.25 58.625 329.188 63.9062C324.125 69.1875 317.453 71.8281 309.172 71.8281C302.266 71.8281 297.281 69.5 294.219 64.8438C291.156 60.1562 290.453 53.875 292.109 46C293.922 37.5625 297.5 30.8438 302.844 25.8438C308.188 20.8438 314.469 18.3438 321.688 18.3438C328.156 18.3438 333.156 20.5 336.688 24.8125C340.25 29.125 341.141 35.4688 339.359 43.8438ZM361.766 4.46875C364.328 1.59375 368.422 0.15625 374.047 0.15625C374.578 0.15625 375.125 0.171875 375.688 0.203125C376.25 0.234375 376.875 0.28125 377.562 0.34375L375.922 8.03125C375.078 7.96875 374.453 7.9375 374.047 7.9375C373.672 7.90625 373.312 7.89062 372.969 7.89062C370.406 7.89062 368.734 8.5625 367.953 9.90625C367.172 11.2188 366.203 14.5938 365.047 20.0312H373.391L371.984 26.6875H363.547L354.359 70H346.016L355.203 26.6875H348.219L349.625 20.0312H356.609L358.297 12.1562C359.172 8.65625 360.328 6.09375 361.766 4.46875ZM383.469 10.7031L385.531 1.14062H393.969L391.906 10.7031H383.469ZM381.5 20.0312H389.938L379.344 70H370.906L381.5 20.0312ZM406.766 1.14062H415.203L400.578 70H392.141L406.766 1.14062ZM461.141 27.6719C462.297 30.2031 462.797 33.1562 462.641 36.5312C462.672 38.8438 462.141 42.5312 461.047 47.5938H424.25C423.312 52.6875 423.641 56.7812 425.234 59.875C426.859 62.9375 430.031 64.4688 434.75 64.4688C439.156 64.4688 442.969 63.0156 446.188 60.1094C448.062 58.4219 449.547 56.4688 450.641 54.25H458.938C458.312 56.0938 457.141 58.1562 455.422 60.4375C453.734 62.6875 451.969 64.5312 450.125 65.9688C447.031 68.4688 443.5 70.1562 439.531 71.0312C437.375 71.5312 435.016 71.7812 432.453 71.7812C426.203 71.7812 421.391 69.5156 418.016 64.9844C414.641 60.4219 413.828 54.0469 415.578 45.8594C417.297 37.7969 420.875 31.25 426.312 26.2188C431.75 21.1875 438 18.6719 445.062 18.6719C448.625 18.6719 451.906 19.5156 454.906 21.2031C457.906 22.8594 459.984 25.0156 461.141 27.6719ZM453.781 40.8906C454.219 37.2344 454.047 34.3125 453.266 32.125C451.828 28.0625 448.406 26.0312 443 26.0312C439.125 26.0312 435.578 27.4375 432.359 30.25C429.141 33.0312 426.984 36.5781 425.891 40.8906H453.781Z" fill="black"/>
</g>
<defs>
<filter id="filter0_dd_2706_57" x="0.203125" y="0.15625" width="466.672" height="79.6719" filterUnits="userSpaceOnUse" color-interpolation-filters="sRGB">
<feFlood flood-opacity="0" result="BackgroundImageFix"/>
<feColorMatrix in="SourceAlpha" type="matrix" values="0 0 0 0 0 0 0 0 0 0 0 0 0 0 0 0 0 0 127 0" result="hardAlpha"/>
<feOffset dy="4"/>
<feGaussianBlur stdDeviation="2"/>
<feComposite in2="hardAlpha" operator="out"/>
<feColorMatrix type="matrix" values="0 0 0 0 0 0 0 0 0 0 0 0 0 0 0 0 0 0 0.25 0"/>
<feBlend mode="normal" in2="BackgroundImageFix" result="effect1_dropShadow_2706_57"/>
<feColorMatrix in="SourceAlpha" type="matrix" values="0 0 0 0 0 0 0 0 0 0 0 0 0 0 0 0 0 0 127 0" result="hardAlpha"/>
<feOffset dy="4"/>
<feGaussianBlur stdDeviation="2"/>
<feComposite in2="hardAlpha" operator="out"/>
<feColorMatrix type="matrix" values="0 0 0 0 0 0 0 0 0 0 0 0 0 0 0 0 0 0 0.25 0"/>
<feBlend mode="normal" in2="effect1_dropShadow_2706_57" result="effect2_dropShadow_2706_57"/>
<feBlend mode="normal" in="SourceGraphic" in2="effect2_dropShadow_2706_57" result="shape"/>
</filter>
</defs>
</svg>
