<svg width="335" height="83" viewBox="0 0 335 83" fill="none" xmlns="http://www.w3.org/2000/svg">
<path d="M59.6901 34V0.399998H97.3221V9.52H72.3621V12.304H97.3221V21.472H72.3621V34H59.6901ZM117.94 5.872C129.508 5.872 136.468 9.856 136.468 19.936C136.468 30.016 129.508 34.048 117.94 34.048C106.324 34.048 99.412 30.064 99.412 19.936C99.412 9.856 106.324 5.872 117.94 5.872ZM118.132 26.464C126.964 26.176 126.58 19.936 126.58 19.936C126.1 13.024 118.132 13.456 118.132 13.456C118.132 13.456 109.78 13.312 109.732 19.936C109.684 26.56 118.132 26.464 118.132 26.464ZM160.878 6.304C164.046 6.304 166.302 6.736 168.126 7.216V16.288C165.582 15.664 163.518 15.376 161.502 15.376C157.662 15.376 153.438 15.856 150.318 19.312V34H139.422V6.352H150.318V11.296C152.718 7.696 156.414 6.304 160.878 6.304ZM207.024 6.352V30.208C207.024 41.152 199.2 45.088 189.84 45.088C182.064 45.088 175.392 43.648 172.8 42.928V34.096C175.92 34.672 181.92 36.016 187.824 36.016C191.472 36.016 193.92 35.344 195.168 32.752C192.624 34 189.696 34.72 186.528 34.72C177.072 34.72 169.392 28.432 169.392 20.656C169.392 12.88 177.072 6.544 186.528 6.544C190.08 6.544 193.392 7.456 196.08 8.944C196.08 7.504 196.128 6.352 196.128 6.352H207.024ZM187.632 27.136C196.416 26.848 196.032 20.656 196.032 20.656C195.552 13.696 187.632 14.128 187.632 14.128C187.632 14.128 179.232 14.032 179.184 20.656C179.136 27.28 187.632 27.136 187.632 27.136ZM228.518 5.872C240.086 5.872 247.046 9.856 247.046 19.936C247.046 30.016 240.086 34.048 228.518 34.048C216.902 34.048 209.99 30.064 209.99 19.936C209.99 9.856 216.902 5.872 228.518 5.872ZM228.71 26.464C237.542 26.176 237.158 19.936 237.158 19.936C236.678 13.024 228.71 13.456 228.71 13.456C228.71 13.456 220.358 13.312 220.31 19.936C220.262 26.56 228.71 26.464 228.71 26.464ZM264.736 21.04C264.736 23.632 265.744 24.928 268.912 24.928C271.36 24.928 272.752 24.928 275.872 24.496V33.376C273.28 33.808 270.064 34.048 266.464 34.048C258.016 34.048 253.84 31.456 253.84 25.552L253.888 15.136L248.368 15.184V5.92L253.84 5.968V3.04L264.736 0.0639992V5.92H275.872V15.136H264.736V21.04ZM27.6248 48.736C38.9528 48.736 44.7128 52.48 44.7128 59.92V60.304C44.7128 67.792 38.9528 71.536 27.6248 71.536H13.4168V82H0.696813V48.736H27.6248ZM31.5128 60.304V60.16C31.5128 59.488 31.5128 57.76 27.4328 57.76H13.4168V62.656H27.4328C31.5128 62.656 31.5128 60.928 31.5128 60.304ZM74.8426 53.92H85.7386V81.568H74.8426V78.208C71.7706 80.56 67.6426 82.048 63.0826 82.048C53.6266 82.048 45.9466 75.712 45.9466 67.936C45.9466 60.16 53.6266 53.872 63.0826 53.872C67.6426 53.872 71.7706 55.36 74.8426 57.712V53.92ZM65.9626 74.128C74.7466 73.792 74.3626 67.6 74.3626 67.6C73.8826 60.688 65.9626 61.072 65.9626 61.072C65.9626 61.072 57.5626 60.976 57.5146 67.6C57.4666 74.224 65.9626 74.128 65.9626 74.128ZM108.189 64.096C118.893 64.624 125.757 65.248 125.757 72.4C125.757 80.704 118.509 82.048 108.189 82.048C97.8691 82.048 88.7971 80.704 88.7971 72.16H99.6931C99.6931 73.744 101.133 74.32 107.709 74.32C113.805 74.32 114.861 74.032 114.861 72.88C114.861 71.488 113.805 71.632 107.277 71.344C94.7011 70.864 89.2291 69.904 89.2291 62.944C89.2291 55.168 97.6291 53.872 107.709 53.872C117.789 53.872 124.845 55.168 124.845 63.04H113.949C113.949 61.6 112.125 61.6 107.277 61.6C101.709 61.6 100.125 61.6 100.125 62.656C100.125 63.76 101.277 63.712 108.189 64.096ZM147.236 64.096C157.94 64.624 164.804 65.248 164.804 72.4C164.804 80.704 157.556 82.048 147.236 82.048C136.916 82.048 127.844 80.704 127.844 72.16H138.74C138.74 73.744 140.18 74.32 146.756 74.32C152.852 74.32 153.908 74.032 153.908 72.88C153.908 71.488 152.852 71.632 146.324 71.344C133.748 70.864 128.276 69.904 128.276 62.944C128.276 55.168 136.676 53.872 146.756 53.872C156.836 53.872 163.892 55.168 163.892 63.04H152.996C152.996 61.6 151.172 61.6 146.324 61.6C140.756 61.6 139.172 61.6 139.172 62.656C139.172 63.76 140.324 63.712 147.236 64.096ZM213.096 54.352H225.384L213.864 82H200.664L194.952 67.792L189.288 82H176.088L164.568 54.352H176.808L183.288 71.92L189.432 54.352H200.52L206.664 71.92L213.096 54.352ZM243.26 53.872C254.828 53.872 261.788 57.856 261.788 67.936C261.788 78.016 254.828 82.048 243.26 82.048C231.644 82.048 224.732 78.064 224.732 67.936C224.732 57.856 231.644 53.872 243.26 53.872ZM243.452 74.464C252.284 74.176 251.9 67.936 251.9 67.936C251.42 61.024 243.452 61.456 243.452 61.456C243.452 61.456 235.1 61.312 235.052 67.936C235.004 74.56 243.452 74.464 243.452 74.464ZM286.199 54.304C289.367 54.304 291.623 54.736 293.447 55.216V64.288C290.903 63.664 288.839 63.376 286.823 63.376C282.983 63.376 278.759 63.856 275.639 67.312V82H264.743V54.352H275.639V59.296C278.039 55.696 281.735 54.304 286.199 54.304ZM334.312 81.568H323.368V77.536C322.984 77.968 322.648 78.4 322.168 78.784C319.816 80.8 316.36 82.048 311.608 82.048C302.344 82.048 294.712 75.904 294.712 67.936C294.712 60.016 302.344 53.872 311.608 53.872C316.36 53.872 319.816 55.072 322.168 57.136C322.648 57.52 322.984 57.952 323.368 58.384V48.208L334.264 48.064L334.312 81.568ZM313.72 74.464C318.616 74.464 322.168 71.968 322.168 67.936C322.168 63.952 318.616 61.456 313.72 61.456C308.872 61.456 305.32 63.952 305.32 67.936C305.32 71.968 308.872 74.464 313.72 74.464Z" fill="black"/>
</svg>
