<svg width="746" height="463" viewBox="0 0 746 463" fill="none" xmlns="http://www.w3.org/2000/svg">
<rect x="0.5" y="0.5" width="745" height="462" rx="29.5" stroke="black"/>
<path d="M69.936 96.152H104.496L100.272 119H40.08L52.56 51.8H78.192L69.936 96.152ZM176.609 71.96H141.665L140.897 76.28H172.769L169.312 94.52H137.536L136.673 98.936H171.521L167.777 119H107.392L119.873 51.8H180.353L176.609 71.96ZM233.629 119L232.189 108.344H209.341L204.349 119H173.149L211.357 51.8H247.069L262.045 119H233.629ZM218.845 88.28H229.309L227.389 74.648H225.277L218.845 88.28ZM317.132 51.8C343.244 51.8 352.172 66.104 348.332 86.552C343.82 110.936 328.94 119 305.804 119C305.42 119 268.267 119 268.267 119L280.748 51.8C280.748 51.8 316.748 51.8 317.132 51.8ZM321.74 85.4C322.892 79.256 320.78 74.84 312.236 74.84C310.124 74.84 305.516 74.84 302.06 74.84L298.124 96.056C301.964 96.056 305.9 96.056 307.628 96.056C316.172 96.056 320.492 92.312 321.74 85.4ZM418.39 71.96H383.446L382.678 76.28H414.55L411.094 94.52H379.318L378.454 98.936H413.302L409.558 119H349.174L361.654 51.8H422.134L418.39 71.96ZM492.306 76.472C490.77 84.92 487.506 91.16 481.842 95.192L490.578 119H463.122L457.554 101.048C454.77 101.048 448.53 101.048 446.322 101.048L442.962 119H417.33L429.81 51.8C429.81 51.8 467.922 51.8 468.21 51.8C484.242 51.8 495.282 60.248 492.306 76.472ZM451.89 71L449.874 81.848C453.33 81.848 458.034 81.848 459.762 81.848C463.986 81.848 466.482 80.504 467.25 76.472C468.018 72.536 465.522 71 461.778 71C460.146 71 455.73 71 451.89 71ZM114.672 148.984C113.52 157.048 106.992 162.328 102.384 163.384L102.192 164.056C109.008 165.592 112.752 172.696 111.12 180.664C107.856 195.736 96.048 199 85.968 199C82.608 199 40.08 199 40.08 199L52.56 131.8C52.56 131.8 92.784 131.8 95.568 131.8C108.912 131.8 116.4 137.272 114.672 148.984ZM86.736 177.208C87.408 173.56 84.048 172.504 81.456 172.504C78.96 172.504 68.4 172.504 67.824 172.504L66.096 181.816C66.672 181.816 77.712 181.816 80.304 181.816C83.952 181.816 86.064 180.76 86.736 177.208ZM87.888 152.056C88.464 149.176 86.64 148.216 83.472 148.216C81.264 148.216 72.816 148.216 72.336 148.216L70.896 155.992C71.376 155.992 80.496 155.992 82.608 155.992C85.872 155.992 87.312 154.84 87.888 152.056ZM163.946 129.976C187.85 129.976 204.458 144.568 200.042 168.28C196.778 186.136 181.13 200.824 156.074 200.824C131.69 200.824 114.986 188.056 119.594 163.384C123.434 142.84 138.122 129.976 163.946 129.976ZM172.586 166.168C173.834 159.448 170.09 154.072 161.066 154.072C152.138 154.072 148.394 158.2 147.146 164.728C145.994 171.064 150.314 176.728 158.378 176.728C166.346 176.728 171.242 173.464 172.586 166.168ZM254.066 199L252.626 188.344H229.778L224.786 199H193.586L231.794 131.8H267.506L282.482 199H254.066ZM239.282 168.28H249.746L247.826 154.648H245.714L239.282 168.28ZM363.681 156.472C362.145 164.92 358.881 171.16 353.217 175.192L361.953 199H334.497L328.929 181.048C326.145 181.048 319.905 181.048 317.697 181.048L314.337 199H288.705L301.185 131.8C301.185 131.8 339.297 131.8 339.585 131.8C355.617 131.8 366.657 140.248 363.681 156.472ZM323.265 151L321.249 161.848C324.705 161.848 329.409 161.848 331.137 161.848C335.361 161.848 337.857 160.504 338.625 156.472C339.393 152.536 336.897 151 333.153 151C331.521 151 327.105 151 323.265 151ZM416.975 131.8C443.087 131.8 452.015 146.104 448.175 166.552C443.663 190.936 428.783 199 405.647 199C405.263 199 368.111 199 368.111 199L380.591 131.8C380.591 131.8 416.591 131.8 416.975 131.8ZM421.583 165.4C422.735 159.256 420.623 154.84 412.079 154.84C409.967 154.84 405.359 154.84 401.903 154.84L397.967 176.056C401.807 176.056 405.743 176.056 407.471 176.056C416.015 176.056 420.335 172.312 421.583 165.4Z" fill="black"/>
<path d="M654.002 42V50.3333H689.794L649.835 90.2917L655.71 96.1667L695.669 56.2083V92H704.002V42H654.002Z" fill="black"/>
</svg>
