<svg width="572" height="385" viewBox="0 0 572 385" fill="none" xmlns="http://www.w3.org/2000/svg">
<rect x="4" width="564" height="289" rx="20" fill="black"/>
<path d="M45.3203 68.8438C45.4609 70.0312 45.7656 70.875 46.2344 71.375C47.0625 72.2656 48.5938 72.7109 50.8281 72.7109C52.1406 72.7109 53.1797 72.5156 53.9453 72.125C54.7266 71.7344 55.1172 71.1484 55.1172 70.3672C55.1172 69.6172 54.8047 69.0469 54.1797 68.6562C53.5547 68.2656 51.2344 67.5938 47.2188 66.6406C44.3281 65.9219 42.2891 65.0234 41.1016 63.9453C39.9141 62.8828 39.3203 61.3516 39.3203 59.3516C39.3203 56.9922 40.2422 54.9688 42.0859 53.2812C43.9453 51.5781 46.5547 50.7266 49.9141 50.7266C53.1016 50.7266 55.6953 51.3672 57.6953 52.6484C59.7109 53.9141 60.8672 56.1094 61.1641 59.2344H54.4844C54.3906 58.375 54.1484 57.6953 53.7578 57.1953C53.0234 56.2891 51.7734 55.8359 50.0078 55.8359C48.5547 55.8359 47.5156 56.0625 46.8906 56.5156C46.2812 56.9688 45.9766 57.5 45.9766 58.1094C45.9766 58.875 46.3047 59.4297 46.9609 59.7734C47.6172 60.1328 49.9375 60.75 53.9219 61.625C56.5781 62.25 58.5703 63.1953 59.8984 64.4609C61.2109 65.7422 61.8672 67.3438 61.8672 69.2656C61.8672 71.7969 60.9219 73.8672 59.0312 75.4766C57.1562 77.0703 54.25 77.8672 50.3125 77.8672C46.2969 77.8672 43.3281 77.0234 41.4062 75.3359C39.5 73.6328 38.5469 71.4688 38.5469 68.8438H45.3203ZM80.9219 50.7969C82.5 50.7969 83.9297 51.0703 85.2109 51.6172C86.5078 52.1641 87.5703 53 88.3984 54.125C89.1016 55.0781 89.5312 56.0625 89.6875 57.0781C89.8438 58.0781 89.9219 59.7188 89.9219 62V77H83.1016V61.4609C83.1016 60.0859 82.8672 58.9766 82.3984 58.1328C81.7891 56.9453 80.6328 56.3516 78.9297 56.3516C77.1641 56.3516 75.8203 56.9453 74.8984 58.1328C73.9922 59.3047 73.5391 60.9844 73.5391 63.1719V77H66.8828V42.5703H73.5391V54.7812C74.5078 53.2969 75.625 52.2656 76.8906 51.6875C78.1719 51.0938 79.5156 50.7969 80.9219 50.7969ZM110.266 64.5781C109.844 64.8438 109.414 65.0625 108.977 65.2344C108.555 65.3906 107.969 65.5391 107.219 65.6797L105.719 65.9609C104.312 66.2109 103.305 66.5156 102.695 66.875C101.664 67.4844 101.148 68.4297 101.148 69.7109C101.148 70.8516 101.461 71.6797 102.086 72.1953C102.727 72.6953 103.5 72.9453 104.406 72.9453C105.844 72.9453 107.164 72.5234 108.367 71.6797C109.586 70.8359 110.219 69.2969 110.266 67.0625V64.5781ZM106.211 61.4609C107.445 61.3047 108.328 61.1094 108.859 60.875C109.812 60.4688 110.289 59.8359 110.289 58.9766C110.289 57.9297 109.922 57.2109 109.188 56.8203C108.469 56.4141 107.406 56.2109 106 56.2109C104.422 56.2109 103.305 56.6016 102.648 57.3828C102.18 57.9609 101.867 58.7422 101.711 59.7266H95.2656C95.4062 57.4922 96.0312 55.6562 97.1406 54.2188C98.9062 51.9688 101.938 50.8438 106.234 50.8438C109.031 50.8438 111.516 51.3984 113.688 52.5078C115.859 53.6172 116.945 55.7109 116.945 58.7891V70.5078C116.945 71.3203 116.961 72.3047 116.992 73.4609C117.039 74.3359 117.172 74.9297 117.391 75.2422C117.609 75.5547 117.938 75.8125 118.375 76.0156V77H111.109C110.906 76.4844 110.766 76 110.688 75.5469C110.609 75.0938 110.547 74.5781 110.5 74C109.578 75 108.516 75.8516 107.312 76.5547C105.875 77.3828 104.25 77.7969 102.438 77.7969C100.125 77.7969 98.2109 77.1406 96.6953 75.8281C95.1953 74.5 94.4453 72.625 94.4453 70.2031C94.4453 67.0625 95.6562 64.7891 98.0781 63.3828C99.4062 62.6172 101.359 62.0703 103.938 61.7422L106.211 61.4609ZM136.773 50.8438C136.898 50.8438 137 50.8516 137.078 50.8672C137.172 50.8672 137.367 50.875 137.664 50.8906V57.7344C137.242 57.6875 136.867 57.6562 136.539 57.6406C136.211 57.625 135.945 57.6172 135.742 57.6172C133.055 57.6172 131.25 58.4922 130.328 60.2422C129.812 61.2266 129.555 62.7422 129.555 64.7891V77H122.828V51.4531H129.203V55.9062C130.234 54.2031 131.133 53.0391 131.898 52.4141C133.148 51.3672 134.773 50.8438 136.773 50.8438ZM151.68 56.2812C150.133 56.2812 148.93 56.7656 148.07 57.7344C147.227 58.7031 146.695 60.0156 146.477 61.6719H156.859C156.75 59.9062 156.211 58.5703 155.242 57.6641C154.289 56.7422 153.102 56.2812 151.68 56.2812ZM151.68 50.7734C153.805 50.7734 155.719 51.1719 157.422 51.9688C159.125 52.7656 160.531 54.0234 161.641 55.7422C162.641 57.2578 163.289 59.0156 163.586 61.0156C163.758 62.1875 163.828 63.875 163.797 66.0781H146.312C146.406 68.6406 147.211 70.4375 148.727 71.4688C149.648 72.1094 150.758 72.4297 152.055 72.4297C153.43 72.4297 154.547 72.0391 155.406 71.2578C155.875 70.8359 156.289 70.25 156.648 69.5H163.469C163.297 71.0156 162.508 72.5547 161.102 74.1172C158.914 76.6016 155.852 77.8438 151.914 77.8438C148.664 77.8438 145.797 76.7969 143.312 74.7031C140.828 72.6094 139.586 69.2031 139.586 64.4844C139.586 60.0625 140.703 56.6719 142.938 54.3125C145.188 51.9531 148.102 50.7734 151.68 50.7734ZM193.727 51.4531H200.5L204.391 69.8516L208.375 51.4531H215.336L207.93 77H201.062L197.055 58.3906L193 77H186.062L178.891 51.4531H186.062L190.047 69.7812L193.727 51.4531ZM225.906 48.4062H219.133V42.2422H225.906V48.4062ZM219.133 51.4531H225.906V77H219.133V51.4531ZM229.773 56.4453V51.6875H233.336V44.5625H239.945V51.6875H244.094V56.4453H239.945V69.9453C239.945 70.9922 240.078 71.6484 240.344 71.9141C240.609 72.1641 241.422 72.2891 242.781 72.2891C242.984 72.2891 243.195 72.2891 243.414 72.2891C243.648 72.2734 243.875 72.2578 244.094 72.2422V77.2344L240.93 77.3516C237.773 77.4609 235.617 76.9141 234.461 75.7109C233.711 74.9453 233.336 73.7656 233.336 72.1719V56.4453H229.773ZM262.469 50.7969C264.047 50.7969 265.477 51.0703 266.758 51.6172C268.055 52.1641 269.117 53 269.945 54.125C270.648 55.0781 271.078 56.0625 271.234 57.0781C271.391 58.0781 271.469 59.7188 271.469 62V77H264.648V61.4609C264.648 60.0859 264.414 58.9766 263.945 58.1328C263.336 56.9453 262.18 56.3516 260.477 56.3516C258.711 56.3516 257.367 56.9453 256.445 58.1328C255.539 59.3047 255.086 60.9844 255.086 63.1719V77H248.43V42.5703H255.086V54.7812C256.055 53.2969 257.172 52.2656 258.438 51.6875C259.719 51.0938 261.062 50.7969 262.469 50.7969ZM292.117 81.8984L292.961 81.9453C293.617 81.9766 294.242 81.9531 294.836 81.875C295.43 81.7969 295.93 81.6172 296.336 81.3359C296.727 81.0703 297.086 80.5156 297.414 79.6719C297.758 78.8281 297.898 78.3125 297.836 78.125L288.461 51.4531H295.891L301.469 70.2969L306.742 51.4531H313.844L305.078 76.5781C303.391 81.4219 302.055 84.4219 301.07 85.5781C300.086 86.75 298.117 87.3359 295.164 87.3359C294.57 87.3359 294.094 87.3281 293.734 87.3125C293.375 87.3125 292.836 87.2891 292.117 87.2422V81.8984ZM329.266 72.2891C331.219 72.2891 332.719 71.5938 333.766 70.2031C334.812 68.8125 335.336 66.8359 335.336 64.2734C335.336 61.7109 334.812 59.7422 333.766 58.3672C332.719 56.9766 331.219 56.2812 329.266 56.2812C327.312 56.2812 325.805 56.9766 324.742 58.3672C323.695 59.7422 323.172 61.7109 323.172 64.2734C323.172 66.8359 323.695 68.8125 324.742 70.2031C325.805 71.5938 327.312 72.2891 329.266 72.2891ZM342.344 64.2734C342.344 68.0234 341.266 71.2344 339.109 73.9062C336.953 76.5625 333.68 77.8906 329.289 77.8906C324.898 77.8906 321.625 76.5625 319.469 73.9062C317.312 71.2344 316.234 68.0234 316.234 64.2734C316.234 60.5859 317.312 57.3906 319.469 54.6875C321.625 51.9844 324.898 50.6328 329.289 50.6328C333.68 50.6328 336.953 51.9844 339.109 54.6875C341.266 57.3906 342.344 60.5859 342.344 64.2734ZM353.805 51.4531V66.8516C353.805 68.3047 353.977 69.3984 354.32 70.1328C354.93 71.4297 356.125 72.0781 357.906 72.0781C360.188 72.0781 361.75 71.1562 362.594 69.3125C363.031 68.3125 363.25 66.9922 363.25 65.3516V51.4531H370.023V77H363.531V73.3906C363.469 73.4688 363.312 73.7031 363.062 74.0938C362.812 74.4844 362.516 74.8281 362.172 75.125C361.125 76.0625 360.109 76.7031 359.125 77.0469C358.156 77.3906 357.016 77.5625 355.703 77.5625C351.922 77.5625 349.375 76.2031 348.062 73.4844C347.328 71.9844 346.961 69.7734 346.961 66.8516V51.4531H353.805ZM390.367 50.8438C390.492 50.8438 390.594 50.8516 390.672 50.8672C390.766 50.8672 390.961 50.875 391.258 50.8906V57.7344C390.836 57.6875 390.461 57.6562 390.133 57.6406C389.805 57.625 389.539 57.6172 389.336 57.6172C386.648 57.6172 384.844 58.4922 383.922 60.2422C383.406 61.2266 383.148 62.7422 383.148 64.7891V77H376.422V51.4531H382.797V55.9062C383.828 54.2031 384.727 53.0391 385.492 52.4141C386.742 51.3672 388.367 50.8438 390.367 50.8438ZM40.6094 125V90.4531H47.7578V103.625H61.2578V90.4531H68.4297V125H61.2578V109.578H47.7578V125H40.6094ZM86.2656 120.289C88.2188 120.289 89.7188 119.594 90.7656 118.203C91.8125 116.812 92.3359 114.836 92.3359 112.273C92.3359 109.711 91.8125 107.742 90.7656 106.367C89.7188 104.977 88.2188 104.281 86.2656 104.281C84.3125 104.281 82.8047 104.977 81.7422 106.367C80.6953 107.742 80.1719 109.711 80.1719 112.273C80.1719 114.836 80.6953 116.812 81.7422 118.203C82.8047 119.594 84.3125 120.289 86.2656 120.289ZM99.3438 112.273C99.3438 116.023 98.2656 119.234 96.1094 121.906C93.9531 124.562 90.6797 125.891 86.2891 125.891C81.8984 125.891 78.625 124.562 76.4688 121.906C74.3125 119.234 73.2344 116.023 73.2344 112.273C73.2344 108.586 74.3125 105.391 76.4688 102.688C78.625 99.9844 81.8984 98.6328 86.2891 98.6328C90.6797 98.6328 93.9531 99.9844 96.1094 102.688C98.2656 105.391 99.3438 108.586 99.3438 112.273ZM132.695 98.8906C133.82 98.8906 134.93 99.1094 136.023 99.5469C137.117 99.9844 138.109 100.75 139 101.844C139.719 102.734 140.203 103.828 140.453 105.125C140.609 105.984 140.688 107.242 140.688 108.898L140.641 125H133.797V108.734C133.797 107.766 133.641 106.969 133.328 106.344C132.734 105.156 131.641 104.562 130.047 104.562C128.203 104.562 126.93 105.328 126.227 106.859C125.867 107.672 125.688 108.648 125.688 109.789V125H118.961V109.789C118.961 108.273 118.805 107.172 118.492 106.484C117.93 105.25 116.828 104.633 115.188 104.633C113.281 104.633 112 105.25 111.344 106.484C110.984 107.188 110.805 108.234 110.805 109.625V125H104.031V99.5H110.523V103.227C111.352 101.898 112.133 100.953 112.867 100.391C114.164 99.3906 115.844 98.8906 117.906 98.8906C119.859 98.8906 121.438 99.3203 122.641 100.18C123.609 100.977 124.344 102 124.844 103.25C125.719 101.75 126.805 100.648 128.102 99.9453C129.477 99.2422 131.008 98.8906 132.695 98.8906ZM153.719 96.4062H146.945V90.2422H153.719V96.4062ZM146.945 99.4531H153.719V125H146.945V99.4531ZM170.289 104.281C168.742 104.281 167.539 104.766 166.68 105.734C165.836 106.703 165.305 108.016 165.086 109.672H175.469C175.359 107.906 174.82 106.57 173.852 105.664C172.898 104.742 171.711 104.281 170.289 104.281ZM170.289 98.7734C172.414 98.7734 174.328 99.1719 176.031 99.9688C177.734 100.766 179.141 102.023 180.25 103.742C181.25 105.258 181.898 107.016 182.195 109.016C182.367 110.188 182.438 111.875 182.406 114.078H164.922C165.016 116.641 165.82 118.438 167.336 119.469C168.258 120.109 169.367 120.43 170.664 120.43C172.039 120.43 173.156 120.039 174.016 119.258C174.484 118.836 174.898 118.25 175.258 117.5H182.078C181.906 119.016 181.117 120.555 179.711 122.117C177.523 124.602 174.461 125.844 170.523 125.844C167.273 125.844 164.406 124.797 161.922 122.703C159.438 120.609 158.195 117.203 158.195 112.484C158.195 108.062 159.312 104.672 161.547 102.312C163.797 99.9531 166.711 98.7734 170.289 98.7734ZM192.133 116.844C192.273 118.031 192.578 118.875 193.047 119.375C193.875 120.266 195.406 120.711 197.641 120.711C198.953 120.711 199.992 120.516 200.758 120.125C201.539 119.734 201.93 119.148 201.93 118.367C201.93 117.617 201.617 117.047 200.992 116.656C200.367 116.266 198.047 115.594 194.031 114.641C191.141 113.922 189.102 113.023 187.914 111.945C186.727 110.883 186.133 109.352 186.133 107.352C186.133 104.992 187.055 102.969 188.898 101.281C190.758 99.5781 193.367 98.7266 196.727 98.7266C199.914 98.7266 202.508 99.3672 204.508 100.648C206.523 101.914 207.68 104.109 207.977 107.234H201.297C201.203 106.375 200.961 105.695 200.57 105.195C199.836 104.289 198.586 103.836 196.82 103.836C195.367 103.836 194.328 104.062 193.703 104.516C193.094 104.969 192.789 105.5 192.789 106.109C192.789 106.875 193.117 107.43 193.773 107.773C194.43 108.133 196.75 108.75 200.734 109.625C203.391 110.25 205.383 111.195 206.711 112.461C208.023 113.742 208.68 115.344 208.68 117.266C208.68 119.797 207.734 121.867 205.844 123.477C203.969 125.07 201.062 125.867 197.125 125.867C193.109 125.867 190.141 125.023 188.219 123.336C186.312 121.633 185.359 119.469 185.359 116.844H192.133Z" fill="white"/>
<path d="M44.095 364.255L40.774 376H25.546L28.867 364.255H24.898L21.577 376H6.349L9.67 364.255H0.598L4.567 349.756H13.801L15.016 345.544H5.782L9.751 331.045H19.147L22.549 319.3H37.777L34.375 331.045H38.344L41.746 319.3H56.974L53.572 331.045H62.644L58.675 345.544H49.441L48.226 349.756H57.46L53.491 364.255H44.095ZM29.92 363.445L26.518 375.19H40.207L43.528 363.445H52.843L56.488 350.485H47.254L48.874 344.734H58.108L61.672 331.855H52.6L55.921 320.029H42.313L38.911 331.855H33.403L36.724 320.029H23.116L19.714 331.855H10.318L6.754 344.734H16.069L14.368 350.485H5.134L1.57 363.445H10.723L7.321 375.19H21.01L24.331 363.445H29.92ZM35.266 344.734L33.565 350.485H28.057L29.677 344.734H35.266ZM30.244 345.544L29.029 349.756H32.998L34.213 345.544H30.244ZM82.5485 358.666L79.3085 376H57.1955L67.7255 319.3H117.216L113.652 338.335H86.2745L85.6265 341.899H108.387L105.228 358.666H82.5485ZM68.3735 320.029L58.1675 375.271H78.6605L81.9005 357.937H104.661L107.496 342.709H84.7355L85.7075 337.525H113.004L116.244 320.029H68.3735ZM147.792 377.539C136.209 377.539 126.813 373.975 121.548 367.576C117.012 362.149 115.473 354.616 117.093 345.868C120.495 327.805 133.698 317.761 154.353 317.761C165.369 317.761 174.441 321.487 179.868 328.048C184.647 333.799 186.348 341.494 184.728 350.161C181.65 366.766 167.151 377.539 147.792 377.539ZM154.353 318.571C134.103 318.571 121.143 328.372 117.822 346.03C116.202 354.616 117.66 361.744 122.115 367.09C127.299 373.327 136.371 376.729 147.792 376.729C166.746 376.729 181.002 366.199 183.999 349.999C185.538 341.575 183.918 334.123 179.301 328.534C173.955 322.135 165.126 318.571 154.353 318.571ZM149.655 357.451C146.334 357.451 143.499 356.317 141.717 354.13C140.097 352.267 139.53 349.756 140.016 347.083C141.15 340.765 144.957 337.849 152.004 337.849C155.73 337.849 158.646 338.983 160.347 341.089C161.886 342.952 162.453 345.463 161.967 348.379C160.833 354.454 156.702 357.451 149.655 357.451ZM152.004 338.578C145.443 338.578 141.879 341.332 140.745 347.164C140.34 349.594 140.826 351.943 142.284 353.644C143.904 355.669 146.577 356.722 149.655 356.722C156.378 356.722 160.104 353.968 161.157 348.217C161.643 345.544 161.157 343.276 159.78 341.575C158.16 339.631 155.487 338.578 152.004 338.578ZM216.201 377.539C205.266 377.539 197.571 374.866 193.278 369.682C189.471 365.065 188.337 358.423 189.876 349.837L195.627 319.3H217.497L211.827 350.08C211.503 351.781 211.827 353.32 212.88 354.535C214.095 356.074 216.12 356.884 218.55 356.884C223.815 356.884 227.46 354.373 228.27 350.161L233.94 319.3H256.053L250.302 349.999C246.738 369.52 236.856 377.539 216.201 377.539ZM216.606 320.11H196.194L190.686 349.999C189.066 358.342 190.2 364.822 193.845 369.196C197.976 374.218 205.509 376.729 216.201 376.729C236.37 376.729 246.009 368.953 249.573 349.918L255.162 320.11H234.588L228.999 350.242C228.108 354.859 224.22 357.613 218.55 357.613C215.877 357.613 213.69 356.722 212.232 355.021C211.098 353.644 210.693 351.862 211.017 349.999L216.606 320.11ZM327.093 319.3L316.563 376H294.45L280.842 348.217H280.194L275.01 376H252.978L263.508 319.3H285.54L299.31 347.083H299.877L305.061 319.3H327.093ZM281.247 347.488L294.936 375.19H315.996L326.202 320.11H305.709L300.525 347.812H298.824L285.135 320.11H264.156L253.869 375.19H274.443L279.546 347.488H281.247ZM355.601 376H323.93L334.46 319.3H364.997C375.446 319.3 383.06 322.054 387.515 327.4C391.727 332.503 393.023 339.631 391.322 348.622C387.839 367.576 376.823 376 355.601 376ZM335.027 320.11L324.821 375.19H355.601C376.337 375.19 387.191 367.009 390.593 348.541C392.213 339.712 390.998 332.827 386.948 327.886C382.655 322.702 375.203 320.11 364.997 320.11H335.027ZM357.14 356.884H348.716L352.199 338.416H360.947C364.349 338.416 366.779 339.307 368.075 340.927C369.371 342.466 369.776 344.815 369.209 347.731C368.075 353.887 364.106 356.884 357.14 356.884ZM352.847 339.226L349.688 356.074H357.14C363.782 356.074 367.427 353.401 368.48 347.569C368.966 344.896 368.642 342.79 367.508 341.413C366.293 339.955 364.106 339.226 360.947 339.226H352.847ZM435.691 356.236L432.046 376H392.032L395.758 356.236H404.911L408.07 339.064H398.917L402.643 319.3H442.576L438.931 339.064H430.183L426.943 356.236H435.691ZM396.406 356.965L393.004 375.19H431.398L434.8 356.965H426.052L429.535 338.335H438.283L441.685 320.11H403.291L399.889 338.335H408.961L405.559 356.965H396.406ZM464.532 358.666L461.292 376H439.179L449.709 319.3H502.197L498.633 338.335H468.258L467.61 341.98H493.368L490.29 358.666H464.532ZM450.357 320.11L440.151 375.19H460.644L463.884 357.937H489.642L492.477 342.709H466.719L467.61 337.606H497.985L501.225 320.11H450.357ZM543.814 360.043L540.817 376H517.246L520.243 359.962L505.258 319.3H528.1L533.77 339.712H535.39L546.082 319.3H571.354L543.814 360.043ZM520.972 359.881L518.137 375.19H540.169L543.085 359.719L569.977 320.11H546.568L535.876 340.522H533.122L527.533 320.11H506.311L520.972 359.881Z" fill="black"/>
</svg>
