<svg width="568" height="58" viewBox="0 0 568 58" fill="none" xmlns="http://www.w3.org/2000/svg">
<g filter="url(#filter0_d_2979_138)">
<path d="M536.364 23H499.333V27H518H536.364V37.3327L538.646 33.5L540.5 30.5L543 27.5L546 25L543 22.5L540.5 19.5L538.5 16.5L536.364 12.666V23Z" fill="black"/>
<rect x="365.5" y="0.5" width="198" height="49" rx="24.5" stroke="black"/>
<path d="M11.4141 7.57031H35.2969L34.3828 11.7891H15.1641L12.9609 22.2422H29.8594L28.9688 26.3438H12.0703L8.76562 42H4.10156L11.4141 7.57031ZM52.4531 29.0391C52.9531 26.6953 52.9844 24.7891 52.5469 23.3203C51.8438 21.0078 50.0391 19.8516 47.1328 19.8516C44.5547 19.8516 42.4688 20.8359 40.875 22.8047C39.2969 24.7734 38.2109 27.1484 37.6172 29.9297C37.0547 32.6016 37.1641 34.8281 37.9453 36.6094C38.7422 38.3906 40.4141 39.2812 42.9609 39.2812C45.7578 39.2812 47.8984 38.2266 49.3828 36.1172C50.8828 33.9922 51.9062 31.6328 52.4531 29.0391ZM56.8828 28.9219C56.0234 32.9688 54.3281 36.3125 51.7969 38.9531C49.2656 41.5938 45.9297 42.9141 41.7891 42.9141C38.3359 42.9141 35.8438 41.75 34.3125 39.4219C32.7812 37.0781 32.4297 33.9375 33.2578 30C34.1641 25.7812 35.9531 22.4219 38.625 19.9219C41.2969 17.4219 44.4375 16.1719 48.0469 16.1719C51.2812 16.1719 53.7812 17.25 55.5469 19.4062C57.3281 21.5625 57.7734 24.7344 56.8828 28.9219ZM66.5859 7.57031H70.8047L63.4922 42H59.2734L66.5859 7.57031ZM77.2734 7.57031H81.4922L74.1797 42H69.9609L77.2734 7.57031ZM100.547 29.0391C101.047 26.6953 101.078 24.7891 100.641 23.3203C99.9375 21.0078 98.1328 19.8516 95.2266 19.8516C92.6484 19.8516 90.5625 20.8359 88.9688 22.8047C87.3906 24.7734 86.3047 27.1484 85.7109 29.9297C85.1484 32.6016 85.2578 34.8281 86.0391 36.6094C86.8359 38.3906 88.5078 39.2812 91.0547 39.2812C93.8516 39.2812 95.9922 38.2266 97.4766 36.1172C98.9766 33.9922 100 31.6328 100.547 29.0391ZM104.977 28.9219C104.117 32.9688 102.422 36.3125 99.8906 38.9531C97.3594 41.5938 94.0234 42.9141 89.8828 42.9141C86.4297 42.9141 83.9375 41.75 82.4062 39.4219C80.875 37.0781 80.5234 33.9375 81.3516 30C82.2578 25.7812 84.0469 22.4219 86.7188 19.9219C89.3906 17.4219 92.5312 16.1719 96.1406 16.1719C99.375 16.1719 101.875 17.25 103.641 19.4062C105.422 21.5625 105.867 24.7344 104.977 28.9219ZM114.516 16.8984L115.148 36.6797L124.242 16.8984H128.977L129.727 36.5625L139.031 16.8984H143.25L130.641 42H126.258L125.273 22.5703L116.203 42H111.82L109.898 16.8984H114.516ZM164.836 16.8984L161.297 33.5625C161.031 34.8438 161.016 35.8906 161.25 36.7031C161.672 38.2031 162.906 38.9531 164.953 38.9531C167.891 38.9531 170.172 37.6406 171.797 35.0156C172.672 33.6094 173.367 31.6797 173.883 29.2266L176.508 16.8984H180.727L175.406 42H171.422L172.242 38.2969C171.492 39.25 170.641 40.0547 169.688 40.7109C167.797 42.0234 165.703 42.6797 163.406 42.6797C159.828 42.6797 157.648 41.4844 156.867 39.0938C156.43 37.8125 156.438 36.1016 156.891 33.9609L160.523 16.8984H164.836ZM186.188 34.125C186.016 35.5312 186.141 36.6094 186.562 37.3594C187.328 38.7188 189.023 39.3984 191.648 39.3984C193.211 39.3984 194.656 39.0625 195.984 38.3906C197.328 37.7031 198.148 36.6484 198.445 35.2266C198.68 34.1484 198.375 33.3281 197.531 32.7656C197 32.4219 195.883 32.0234 194.18 31.5703L191.016 30.7266C188.984 30.1953 187.531 29.6016 186.656 28.9453C185.078 27.8047 184.508 26.2266 184.945 24.2109C185.445 21.8359 186.703 19.9141 188.719 18.4453C190.75 16.9766 193.211 16.2422 196.102 16.2422C199.883 16.2422 202.375 17.3516 203.578 19.5703C204.328 20.9766 204.516 22.4922 204.141 24.1172H200.156C200.281 23.1641 200.125 22.2969 199.688 21.5156C198.953 20.4062 197.391 19.8516 195 19.8516C193.406 19.8516 192.133 20.1562 191.18 20.7656C190.242 21.375 189.664 22.1797 189.445 23.1797C189.211 24.2734 189.562 25.1484 190.5 25.8047C191.047 26.1953 191.898 26.5391 193.055 26.8359L195.703 27.5156C198.578 28.25 200.461 28.9609 201.352 29.6484C202.758 30.7266 203.211 32.4219 202.711 34.7344C202.242 36.9688 200.984 38.8984 198.938 40.5234C196.906 42.1484 194.156 42.9609 190.688 42.9609C186.953 42.9609 184.484 42.1172 183.281 40.4297C182.094 38.7266 181.711 36.625 182.133 34.125H186.188ZM224.695 16.8984H228.703L227.953 20.4609C229.453 18.9922 230.93 17.9375 232.383 17.2969C233.852 16.6562 235.398 16.3359 237.023 16.3359C240.586 16.3359 242.727 17.5781 243.445 20.0625C243.852 21.4219 243.789 23.3672 243.258 25.8984L239.836 42H235.547L238.898 26.1797C239.227 24.6484 239.266 23.4141 239.016 22.4766C238.594 20.9141 237.398 20.1328 235.43 20.1328C234.43 20.1328 233.586 20.2344 232.898 20.4375C231.664 20.7812 230.5 21.4688 229.406 22.5C228.531 23.3281 227.891 24.1875 227.484 25.0781C227.094 25.9531 226.727 27.2109 226.383 28.8516L223.594 42H219.375L224.695 16.8984ZM266.109 29.0391C266.609 26.6953 266.641 24.7891 266.203 23.3203C265.5 21.0078 263.695 19.8516 260.789 19.8516C258.211 19.8516 256.125 20.8359 254.531 22.8047C252.953 24.7734 251.867 27.1484 251.273 29.9297C250.711 32.6016 250.82 34.8281 251.602 36.6094C252.398 38.3906 254.07 39.2812 256.617 39.2812C259.414 39.2812 261.555 38.2266 263.039 36.1172C264.539 33.9922 265.562 31.6328 266.109 29.0391ZM270.539 28.9219C269.68 32.9688 267.984 36.3125 265.453 38.9531C262.922 41.5938 259.586 42.9141 255.445 42.9141C251.992 42.9141 249.5 41.75 247.969 39.4219C246.438 37.0781 246.086 33.9375 246.914 30C247.82 25.7812 249.609 22.4219 252.281 19.9219C254.953 17.4219 258.094 16.1719 261.703 16.1719C264.938 16.1719 267.438 17.25 269.203 19.4062C270.984 21.5625 271.43 24.7344 270.539 28.9219ZM280.078 16.8984L280.711 36.6797L289.805 16.8984H294.539L295.289 36.5625L304.594 16.8984H308.812L296.203 42H291.82L290.836 22.5703L281.766 42H277.383L275.461 16.8984H280.078Z" fill="black"/>
</g>
<defs>
<filter id="filter0_d_2979_138" x="0.101562" y="0" width="567.898" height="58" filterUnits="userSpaceOnUse" color-interpolation-filters="sRGB">
<feFlood flood-opacity="0" result="BackgroundImageFix"/>
<feColorMatrix in="SourceAlpha" type="matrix" values="0 0 0 0 0 0 0 0 0 0 0 0 0 0 0 0 0 0 127 0" result="hardAlpha"/>
<feOffset dy="4"/>
<feGaussianBlur stdDeviation="2"/>
<feComposite in2="hardAlpha" operator="out"/>
<feColorMatrix type="matrix" values="0 0 0 0 0 0 0 0 0 0 0 0 0 0 0 0 0 0 0.25 0"/>
<feBlend mode="normal" in2="BackgroundImageFix" result="effect1_dropShadow_2979_138"/>
<feBlend mode="normal" in="SourceGraphic" in2="effect1_dropShadow_2979_138" result="shape"/>
</filter>
</defs>
</svg>
