<svg width="27" height="27" viewBox="0 0 27 27" fill="none" xmlns="http://www.w3.org/2000/svg">
<path d="M7.66667 0.375C3.64021 0.375 0.375 3.64021 0.375 7.66667V19.3333C0.375 23.3598 3.64021 26.625 7.66667 26.625H19.3333C23.3598 26.625 26.625 23.3598 26.625 19.3333V7.66667C26.625 3.64021 23.3598 0.375 19.3333 0.375H7.66667ZM22.25 3.29167C23.055 3.29167 23.7083 3.945 23.7083 4.75C23.7083 5.555 23.055 6.20833 22.25 6.20833C21.445 6.20833 20.7917 5.555 20.7917 4.75C20.7917 3.945 21.445 3.29167 22.25 3.29167ZM13.5 6.20833C17.5265 6.20833 20.7917 9.47354 20.7917 13.5C20.7917 17.5265 17.5265 20.7917 13.5 20.7917C9.47354 20.7917 6.20833 17.5265 6.20833 13.5C6.20833 9.47354 9.47354 6.20833 13.5 6.20833ZM13.5 9.125C12.3397 9.125 11.2269 9.58594 10.4064 10.4064C9.58594 11.2269 9.125 12.3397 9.125 13.5C9.125 14.6603 9.58594 15.7731 10.4064 16.5936C11.2269 17.4141 12.3397 17.875 13.5 17.875C14.6603 17.875 15.7731 17.4141 16.5936 16.5936C17.4141 15.7731 17.875 14.6603 17.875 13.5C17.875 12.3397 17.4141 11.2269 16.5936 10.4064C15.7731 9.58594 14.6603 9.125 13.5 9.125Z" fill="white"/>
</svg>
