<svg width="456" height="150" viewBox="0 0 456 150" fill="none" xmlns="http://www.w3.org/2000/svg">
<path d="M29.936 45.152H64.496L60.272 68H0.0799999L12.56 0.799995H38.192L29.936 45.152ZM136.609 20.96H101.665L100.897 25.28H132.769L129.312 43.52H97.5365L96.6725 47.936H131.521L127.777 68H67.3925L79.8725 0.799995H140.353L136.609 20.96ZM193.629 68L192.189 57.344H169.341L164.349 68H133.149L171.357 0.799995H207.069L222.045 68H193.629ZM178.845 37.28H189.309L187.389 23.648H185.277L178.845 37.28ZM277.132 0.799995C303.244 0.799995 312.172 15.104 308.332 35.552C303.82 59.936 288.94 68 265.804 68C265.42 68 228.267 68 228.267 68L240.748 0.799995C240.748 0.799995 276.748 0.799995 277.132 0.799995ZM281.74 34.4C282.892 28.256 280.78 23.84 272.236 23.84C270.124 23.84 265.516 23.84 262.06 23.84L258.124 45.056C261.964 45.056 265.9 45.056 267.628 45.056C276.172 45.056 280.492 41.312 281.74 34.4ZM378.39 20.96H343.446L342.678 25.28H374.55L371.094 43.52H339.318L338.454 47.936H373.302L369.558 68H309.174L321.654 0.799995H382.134L378.39 20.96ZM452.306 25.472C450.77 33.92 447.506 40.16 441.842 44.192L450.578 68H423.122L417.554 50.048C414.77 50.048 408.53 50.048 406.322 50.048L402.962 68H377.33L389.81 0.799995C389.81 0.799995 427.922 0.799995 428.21 0.799995C444.242 0.799995 455.282 9.248 452.306 25.472ZM411.89 20L409.874 30.848C413.33 30.848 418.034 30.848 419.762 30.848C423.986 30.848 426.482 29.504 427.25 25.472C428.018 21.536 425.522 20 421.778 20C420.146 20 415.73 20 411.89 20ZM74.672 97.984C73.52 106.048 66.992 111.328 62.384 112.384L62.192 113.056C69.008 114.592 72.752 121.696 71.12 129.664C67.856 144.736 56.048 148 45.968 148C42.608 148 0.0799999 148 0.0799999 148L12.56 80.8C12.56 80.8 52.784 80.8 55.568 80.8C68.912 80.8 76.4 86.272 74.672 97.984ZM46.736 126.208C47.408 122.56 44.048 121.504 41.456 121.504C38.96 121.504 28.4 121.504 27.824 121.504L26.096 130.816C26.672 130.816 37.712 130.816 40.304 130.816C43.952 130.816 46.064 129.76 46.736 126.208ZM47.888 101.056C48.464 98.176 46.64 97.216 43.472 97.216C41.264 97.216 32.816 97.216 32.336 97.216L30.896 104.992C31.376 104.992 40.496 104.992 42.608 104.992C45.872 104.992 47.312 103.84 47.888 101.056ZM123.946 78.976C147.85 78.976 164.458 93.568 160.042 117.28C156.778 135.136 141.13 149.824 116.074 149.824C91.6903 149.824 74.9862 137.056 79.5943 112.384C83.4343 91.84 98.1223 78.976 123.946 78.976ZM132.586 115.168C133.834 108.448 130.09 103.072 121.066 103.072C112.138 103.072 108.394 107.2 107.146 113.728C105.994 120.064 110.314 125.728 118.378 125.728C126.346 125.728 131.242 122.464 132.586 115.168ZM214.066 148L212.626 137.344H189.778L184.786 148H153.586L191.794 80.8H227.506L242.482 148H214.066ZM199.282 117.28H209.746L207.826 103.648H205.714L199.282 117.28ZM323.681 105.472C322.145 113.92 318.881 120.16 313.217 124.192L321.953 148H294.497L288.929 130.048C286.145 130.048 279.905 130.048 277.697 130.048L274.337 148H248.705L261.185 80.8C261.185 80.8 299.297 80.8 299.585 80.8C315.617 80.8 326.657 89.248 323.681 105.472ZM283.265 100L281.249 110.848C284.705 110.848 289.409 110.848 291.137 110.848C295.361 110.848 297.857 109.504 298.625 105.472C299.393 101.536 296.897 100 293.153 100C291.521 100 287.105 100 283.265 100ZM376.975 80.8C403.087 80.8 412.015 95.104 408.175 115.552C403.663 139.936 388.783 148 365.647 148C365.263 148 328.111 148 328.111 148L340.591 80.8C340.591 80.8 376.591 80.8 376.975 80.8ZM381.583 114.4C382.735 108.256 380.623 103.84 372.079 103.84C369.967 103.84 365.359 103.84 361.903 103.84L357.967 125.056C361.807 125.056 365.743 125.056 367.471 125.056C376.015 125.056 380.335 121.312 381.583 114.4Z" fill="white"/>
</svg>
