<svg width="277" height="83" viewBox="0 0 277 83" fill="none" xmlns="http://www.w3.org/2000/svg">
<path d="M67.3789 0.399998V24.256H91.4749V34H54.6589V0.399998H67.3789ZM111.174 5.872C122.742 5.872 129.702 9.856 129.702 19.936C129.702 30.016 122.742 34.048 111.174 34.048C99.5584 34.048 92.6464 30.064 92.6464 19.936C92.6464 9.856 99.5584 5.872 111.174 5.872ZM111.366 26.464C120.198 26.176 119.814 19.936 119.814 19.936C119.334 13.024 111.366 13.456 111.366 13.456C111.366 13.456 103.014 13.312 102.966 19.936C102.918 26.56 111.366 26.464 111.366 26.464ZM168.993 6.352V30.208C168.993 41.152 161.169 45.088 151.809 45.088C144.033 45.088 137.361 43.648 134.769 42.928V34.096C137.889 34.672 143.889 36.016 149.793 36.016C153.441 36.016 155.889 35.344 157.137 32.752C154.593 34 151.665 34.72 148.497 34.72C139.041 34.72 131.361 28.432 131.361 20.656C131.361 12.88 139.041 6.544 148.497 6.544C152.049 6.544 155.361 7.456 158.049 8.944C158.049 7.504 158.097 6.352 158.097 6.352H168.993ZM149.601 27.136C158.385 26.848 158.001 20.656 158.001 20.656C157.521 13.696 149.601 14.128 149.601 14.128C149.601 14.128 141.201 14.032 141.153 20.656C141.105 27.28 149.601 27.136 149.601 27.136ZM183.767 34H172.871V8.896H183.767V34ZM183.767 6.352H172.871V0.495999H183.767V6.352ZM211.689 6.304C217.833 6.304 224.793 8.224 224.793 18.064V34H213.897V22.528C213.897 17.824 212.217 15.856 207.273 15.856C204.057 15.856 200.649 17.248 198.537 19.312V34H187.641V6.352H198.489L198.537 10.384C201.801 8.128 205.977 6.304 211.689 6.304ZM18.0591 48.4H35.2911L53.1951 82H40.3791L37.4031 76.24H15.8991L12.9231 82H0.155062L18.0591 48.4ZM20.5551 67.168H32.7951L27.8031 57.424H25.5471L20.5551 67.168ZM70.0817 74.464C74.0657 74.464 77.1377 72.784 78.1457 70H88.8017C87.8897 78.592 81.1217 82.048 70.3697 82.048C58.7537 82.048 51.8417 78.064 51.8417 67.936C51.8417 57.856 58.7537 53.872 70.3697 53.872C81.1217 53.872 87.8897 57.328 88.8017 65.92H78.1457C77.1377 63.136 74.0657 61.456 70.0817 61.456C65.1857 61.456 61.6817 63.952 61.6817 67.936C61.6817 71.968 65.1857 74.464 70.0817 74.464ZM108.847 74.464C112.831 74.464 115.903 72.784 116.911 70H127.567C126.655 78.592 119.887 82.048 109.135 82.048C97.5193 82.048 90.6073 78.064 90.6073 67.936C90.6073 57.856 97.5193 53.872 109.135 53.872C119.887 53.872 126.655 57.328 127.567 65.92H116.911C115.903 63.136 112.831 61.456 108.847 61.456C103.951 61.456 100.447 63.952 100.447 67.936C100.447 71.968 103.951 74.464 108.847 74.464ZM147.901 53.872C159.469 53.872 166.429 57.856 166.429 67.936C166.429 78.016 159.469 82.048 147.901 82.048C136.285 82.048 129.373 78.064 129.373 67.936C129.373 57.856 136.285 53.872 147.901 53.872ZM148.093 74.464C156.925 74.176 156.541 67.936 156.541 67.936C156.061 61.024 148.093 61.456 148.093 61.456C148.093 61.456 139.741 61.312 139.693 67.936C139.645 74.56 148.093 74.464 148.093 74.464ZM206.151 81.568H195.255V77.92C191.943 80.224 187.767 82.048 182.055 82.048C175.911 82.048 168.999 80.128 168.999 70.288V53.92H179.895V65.824C179.895 70.48 181.575 72.496 186.471 72.496C189.687 72.496 193.095 71.104 195.255 69.04L195.207 53.92H206.151V81.568ZM234.259 54.304C240.403 54.304 247.363 56.224 247.363 66.064V82H236.467V70.528C236.467 65.824 234.787 63.856 229.843 63.856C226.627 63.856 223.219 65.248 221.107 67.312V82H210.211V54.352H221.059L221.107 58.384C224.371 56.128 228.547 54.304 234.259 54.304ZM265.775 69.04C265.775 71.632 266.783 72.928 269.951 72.928C272.399 72.928 273.791 72.928 276.911 72.496V81.376C274.319 81.808 271.103 82.048 267.503 82.048C259.055 82.048 254.879 79.456 254.879 73.552L254.927 63.136L249.407 63.184V53.92L254.879 53.968V51.04L265.775 48.064V53.92H276.911V63.136H265.775V69.04Z" fill="black"/>
</svg>
