<svg width="335" height="83" viewBox="0 0 335 83" fill="none" xmlns="http://www.w3.org/2000/svg">
<path d="M27.6248 0.735999C38.9528 0.735999 44.7128 4.48 44.7128 11.92V12.304C44.7128 19.792 38.9528 23.536 27.6248 23.536H13.4168V34H0.696813V0.735999H27.6248ZM31.5128 12.304V12.16C31.5128 11.488 31.5128 9.76 27.4328 9.76H13.4168V14.656H27.4328C31.5128 14.656 31.5128 12.928 31.5128 12.304ZM74.8426 5.92H85.7386V33.568H74.8426V30.208C71.7706 32.56 67.6426 34.048 63.0826 34.048C53.6266 34.048 45.9466 27.712 45.9466 19.936C45.9466 12.16 53.6266 5.872 63.0826 5.872C67.6426 5.872 71.7706 7.36 74.8426 9.712V5.92ZM65.9626 26.128C74.7466 25.792 74.3626 19.6 74.3626 19.6C73.8826 12.688 65.9626 13.072 65.9626 13.072C65.9626 13.072 57.5626 12.976 57.5146 19.6C57.4666 26.224 65.9626 26.128 65.9626 26.128ZM108.189 16.096C118.893 16.624 125.757 17.248 125.757 24.4C125.757 32.704 118.509 34.048 108.189 34.048C97.8691 34.048 88.7971 32.704 88.7971 24.16H99.6931C99.6931 25.744 101.133 26.32 107.709 26.32C113.805 26.32 114.861 26.032 114.861 24.88C114.861 23.488 113.805 23.632 107.277 23.344C94.7011 22.864 89.2291 21.904 89.2291 14.944C89.2291 7.168 97.6291 5.872 107.709 5.872C117.789 5.872 124.845 7.168 124.845 15.04H113.949C113.949 13.6 112.125 13.6 107.277 13.6C101.709 13.6 100.125 13.6 100.125 14.656C100.125 15.76 101.277 15.712 108.189 16.096ZM147.236 16.096C157.94 16.624 164.804 17.248 164.804 24.4C164.804 32.704 157.556 34.048 147.236 34.048C136.916 34.048 127.844 32.704 127.844 24.16H138.74C138.74 25.744 140.18 26.32 146.756 26.32C152.852 26.32 153.908 26.032 153.908 24.88C153.908 23.488 152.852 23.632 146.324 23.344C133.748 22.864 128.276 21.904 128.276 14.944C128.276 7.168 136.676 5.872 146.756 5.872C156.836 5.872 163.892 7.168 163.892 15.04H152.996C152.996 13.6 151.172 13.6 146.324 13.6C140.756 13.6 139.172 13.6 139.172 14.656C139.172 15.76 140.324 15.712 147.236 16.096ZM213.096 6.352H225.384L213.864 34H200.664L194.952 19.792L189.288 34H176.088L164.568 6.352H176.808L183.288 23.92L189.432 6.352H200.52L206.664 23.92L213.096 6.352ZM243.26 5.872C254.828 5.872 261.788 9.856 261.788 19.936C261.788 30.016 254.828 34.048 243.26 34.048C231.644 34.048 224.732 30.064 224.732 19.936C224.732 9.856 231.644 5.872 243.26 5.872ZM243.452 26.464C252.284 26.176 251.9 19.936 251.9 19.936C251.42 13.024 243.452 13.456 243.452 13.456C243.452 13.456 235.1 13.312 235.052 19.936C235.004 26.56 243.452 26.464 243.452 26.464ZM286.199 6.304C289.367 6.304 291.623 6.736 293.447 7.216V16.288C290.903 15.664 288.839 15.376 286.823 15.376C282.983 15.376 278.759 15.856 275.639 19.312V34H264.743V6.352H275.639V11.296C278.039 7.696 281.735 6.304 286.199 6.304ZM334.312 33.568H323.368V29.536C322.984 29.968 322.648 30.4 322.168 30.784C319.816 32.8 316.36 34.048 311.608 34.048C302.344 34.048 294.712 27.904 294.712 19.936C294.712 12.016 302.344 5.872 311.608 5.872C316.36 5.872 319.816 7.072 322.168 9.136C322.648 9.52 322.984 9.952 323.368 10.384V0.207997L334.264 0.0639992L334.312 33.568ZM313.72 26.464C318.616 26.464 322.168 23.968 322.168 19.936C322.168 15.952 318.616 13.456 313.72 13.456C308.872 13.456 305.32 15.952 305.32 19.936C305.32 23.968 308.872 26.464 313.72 26.464ZM116.995 60.112C116.995 65.152 114.355 68.512 109.219 70.192L116.755 82.048H102.883L96.2592 71.44H85.6992V82H72.9792V48.4H99.9072C111.235 48.4 116.995 52.192 116.995 59.68V60.112ZM85.6992 57.52V62.464H99.7152C103.795 62.464 103.795 60.736 103.795 60.064V59.92C103.795 59.296 103.795 57.52 99.7152 57.52H85.6992ZM155.802 66.256C155.85 67.072 155.85 67.84 155.802 68.512H128.73C129.018 72.16 132.426 74.464 137.082 74.464C141.066 74.464 144.138 72.784 145.146 70H155.802C154.89 78.592 148.122 82 137.37 82C125.754 82 118.842 78.016 118.842 67.936C118.842 57.856 125.754 53.872 137.37 53.872C147.258 53.872 153.69 56.8 155.418 63.952H155.466C155.562 64.288 155.61 64.768 155.658 65.2C155.706 65.44 155.754 65.632 155.802 65.872H155.754C155.754 66.016 155.802 66.112 155.802 66.256ZM130.218 63.952H143.898C142.41 62.368 140.01 61.456 137.082 61.456C134.154 61.456 131.706 62.368 130.218 63.952ZM177.189 64.096C187.893 64.624 194.757 65.248 194.757 72.4C194.757 80.704 187.509 82.048 177.189 82.048C166.869 82.048 157.797 80.704 157.797 72.16H168.693C168.693 73.744 170.133 74.32 176.709 74.32C182.805 74.32 183.861 74.032 183.861 72.88C183.861 71.488 182.805 71.632 176.277 71.344C163.701 70.864 158.229 69.904 158.229 62.944C158.229 55.168 166.629 53.872 176.709 53.872C186.789 53.872 193.845 55.168 193.845 63.04H182.949C182.949 61.6 181.125 61.6 176.277 61.6C170.709 61.6 169.125 61.6 169.125 62.656C169.125 63.76 170.277 63.712 177.189 64.096ZM233.708 66.256C233.756 67.072 233.756 67.84 233.708 68.512H206.636C206.924 72.16 210.332 74.464 214.988 74.464C218.972 74.464 222.044 72.784 223.052 70H233.708C232.796 78.592 226.028 82 215.276 82C203.66 82 196.748 78.016 196.748 67.936C196.748 57.856 203.66 53.872 215.276 53.872C225.164 53.872 231.596 56.8 233.324 63.952H233.372C233.468 64.288 233.516 64.768 233.564 65.2C233.612 65.44 233.66 65.632 233.708 65.872H233.66C233.66 66.016 233.708 66.112 233.708 66.256ZM208.124 63.952H221.804C220.316 62.368 217.916 61.456 214.988 61.456C212.06 61.456 209.612 62.368 208.124 63.952ZM251.447 69.04C251.447 71.632 252.455 72.928 255.623 72.928C258.071 72.928 259.463 72.928 262.583 72.496V81.376C259.991 81.808 256.775 82.048 253.175 82.048C244.727 82.048 240.551 79.456 240.551 73.552L240.599 63.136L235.079 63.184V53.92L240.551 53.968V51.04L251.447 48.064V53.92H262.583V63.136H251.447V69.04Z" fill="black"/>
</svg>
