<svg width="31" height="31" viewBox="0 0 31 31" fill="none" xmlns="http://www.w3.org/2000/svg">
<path d="M22.6302 8.62192L12.7452 18.5069L7.36015 13.1369L5.24514 15.2519L12.7452 22.7519L24.7452 10.7519L22.6302 8.62192ZM15.7452 0.251953C7.46515 0.251953 0.745117 6.97193 0.745117 15.2519C0.745117 23.5319 7.46515 30.2518 15.7452 30.2518C24.0252 30.2518 30.7453 23.5319 30.7453 15.2519C30.7453 6.97193 24.0252 0.251953 15.7452 0.251953ZM15.7452 27.2519C9.11516 27.2519 3.74513 21.8819 3.74513 15.2519C3.74513 8.62192 9.11516 3.25194 15.7452 3.25194C22.3752 3.25194 27.7453 8.62192 27.7453 15.2519C27.7453 21.8819 22.3752 27.2519 15.7452 27.2519Z" fill="#EDEDED"/>
</svg>
