<svg width="35" height="35" viewBox="0 0 35 35" fill="none" xmlns="http://www.w3.org/2000/svg">
<path d="M32.0837 5.83203C30.9462 6.50724 28.6639 7.42745 27.3222 7.69286C27.2828 7.70307 27.2507 7.7162 27.2128 7.72641C26.0272 6.55682 24.4026 5.83203 22.6045 5.83203C18.9805 5.83203 16.042 8.77057 16.042 12.3945C16.042 12.5856 16.0259 12.937 16.042 13.1237C11.1522 13.1237 7.43053 10.5629 4.76178 7.29036C4.47158 8.01953 4.3447 9.17161 4.3447 10.2537C4.3447 12.2968 5.94158 14.3035 8.42803 15.5474C7.97012 15.6656 7.46553 15.7502 6.94053 15.7502C6.09324 15.7502 5.19637 15.527 4.37533 14.8504C4.37533 14.8752 4.37533 14.8985 4.37533 14.9247C4.37533 17.7802 7.40574 19.7241 10.1007 20.2652C9.55387 20.5874 8.45137 20.6195 7.91324 20.6195C7.53408 20.6195 6.19241 20.446 5.83366 20.3789C6.58324 22.7195 9.28699 24.0349 11.8639 24.0816C9.84845 25.6624 8.44991 26.2487 4.32283 26.2487H2.91699C5.52449 27.9199 8.84512 29.1668 12.173 29.1668C23.0084 29.1668 29.167 20.9083 29.167 13.1237C29.167 12.9983 29.1641 12.7358 29.1597 12.4718C29.1597 12.4456 29.167 12.4208 29.167 12.3945C29.167 12.3552 29.1553 12.3172 29.1553 12.2779C29.1509 12.0795 29.1466 11.8943 29.1422 11.7981C30.2943 10.9668 31.2932 9.92995 32.0837 8.7487C31.0264 9.21828 29.8918 9.53328 28.7003 9.6762C29.9166 8.94703 31.6447 7.2087 32.0837 5.83203Z" fill="white"/>
</svg>
